<svg width="242" height="54" viewBox="0 0 242 54" fill="none"
    xmlns="http://www.w3.org/2000/svg">
    <path d="M37.274 19.2334C39.5488 19.2334 41.393 17.3893 41.393 15.1144C41.393 12.8396 39.5488 10.9955 37.274 10.9955C34.9992 10.9955 33.1551 12.8396 33.1551 15.1144C33.1551 17.3893 34.9992 19.2334 37.274 19.2334Z" fill="#3A2E27"/>
    <path d="M48.3485 19.2213C50.6233 19.2213 52.4675 17.3772 52.4675 15.1024C52.4675 12.8275 50.6233 10.9834 48.3485 10.9834C46.0737 10.9834 44.2296 12.8275 44.2296 15.1024C44.2296 17.3772 46.0737 19.2213 48.3485 19.2213Z" fill="#3A2E27"/>
    <path d="M4.11895 19.2007C6.39379 19.2007 8.23791 17.3566 8.23791 15.0817C8.23791 12.8069 6.39379 10.9628 4.11895 10.9628C1.84412 10.9628 0 12.8069 0 15.0817C0 17.3566 1.84412 19.2007 4.11895 19.2007Z" fill="#3A2E27"/>
    <path d="M15.1212 19.2573C17.396 19.2573 19.2402 17.4132 19.2402 15.1384C19.2402 12.8635 17.396 11.0194 15.1212 11.0194C12.8464 11.0194 11.0023 12.8635 11.0023 15.1384C11.0023 17.4132 12.8464 19.2573 15.1212 19.2573Z" fill="#3A2E27"/>
    <path d="M15.1588 8.26196C17.4336 8.26196 19.2777 6.41784 19.2777 4.143C19.2777 1.86817 17.4336 0.0240479 15.1588 0.0240479C12.8839 0.0240479 11.0398 1.86817 11.0398 4.143C11.0398 6.41784 12.8839 8.26196 15.1588 8.26196Z" fill="#3A2E27"/>
    <path d="M26.2314 8.24999C28.5063 8.24999 30.3504 6.40587 30.3504 4.13104C30.3504 1.8562 28.5063 0.012085 26.2314 0.012085C23.9566 0.012085 22.1125 1.8562 22.1125 4.13104C22.1125 6.40587 23.9566 8.24999 26.2314 8.24999Z" fill="#3A2E27"/>
    <path d="M37.3082 8.23791C39.5831 8.23791 41.4272 6.39379 41.4272 4.11895C41.4272 1.84412 39.5831 0 37.3082 0C35.0334 0 33.1893 1.84412 33.1893 4.11895C33.1893 6.39379 35.0334 8.23791 37.3082 8.23791Z" fill="#3A2E27"/>
    <path d="M4.15176 30.2667C6.4266 30.2667 8.27071 28.4226 8.27071 26.1478C8.27071 23.8729 6.4266 22.0288 4.15176 22.0288C1.87692 22.0288 0.0328064 23.8729 0.0328064 26.1478C0.0328064 28.4226 1.87692 30.2667 4.15176 30.2667Z" fill="#3A2E27"/>
    <path d="M15.1588 30.3234C17.4336 30.3234 19.2777 28.4792 19.2777 26.2044C19.2777 23.9296 17.4336 22.0854 15.1588 22.0854C12.8839 22.0854 11.0398 23.9296 11.0398 26.2044C11.0398 28.4792 12.8839 30.3234 15.1588 30.3234Z" fill="#3A2E27"/>
    <path d="M37.3082 30.2991C39.5831 30.2991 41.4272 28.4549 41.4272 26.1801C41.4272 23.9053 39.5831 22.0612 37.3082 22.0612C35.0334 22.0612 33.1893 23.9053 33.1893 26.1801C33.1893 28.4549 35.0334 30.2991 37.3082 30.2991Z" fill="#3A2E27"/>
    <path d="M4.11895 41.2634C6.39379 41.2634 8.23791 39.4193 8.23791 37.1445C8.23791 34.8696 6.39379 33.0255 4.11895 33.0255C1.84412 33.0255 0 34.8696 0 37.1445C0 39.4193 1.84412 41.2634 4.11895 41.2634Z" fill="#3A2E27"/>
    <path d="M26.1986 41.3085C28.4735 41.3085 30.3176 39.4643 30.3176 37.1895C30.3176 34.9147 28.4735 33.0706 26.1986 33.0706C23.9238 33.0706 22.0797 34.9147 22.0797 37.1895C22.0797 39.4643 23.9238 41.3085 26.1986 41.3085Z" fill="#3A2E27"/>
    <path d="M37.2722 41.2963C39.547 41.2963 41.3911 39.4521 41.3911 37.1773C41.3911 34.9025 39.547 33.0583 37.2722 33.0583C34.9973 33.0583 33.1532 34.9025 33.1532 37.1773C33.1532 39.4521 34.9973 41.2963 37.2722 41.2963Z" fill="#3A2E27"/>
    <path d="M48.3485 41.284C50.6233 41.284 52.4675 39.4399 52.4675 37.1651C52.4675 34.8903 50.6233 33.0461 48.3485 33.0461C46.0737 33.0461 44.2296 34.8903 44.2296 37.1651C44.2296 39.4399 46.0737 41.284 48.3485 41.284Z" fill="#3A2E27"/>
    <path d="M15.1588 52.3885C17.4336 52.3885 19.2777 50.5444 19.2777 48.2696C19.2777 45.9948 17.4336 44.1506 15.1588 44.1506C12.8839 44.1506 11.0398 45.9948 11.0398 48.2696C11.0398 50.5444 12.8839 52.3885 15.1588 52.3885Z" fill="#3A2E27"/>
    <path d="M26.2314 52.3745C28.5063 52.3745 30.3504 50.5304 30.3504 48.2556C30.3504 45.9807 28.5063 44.1366 26.2314 44.1366C23.9566 44.1366 22.1125 45.9807 22.1125 48.2556C22.1125 50.5304 23.9566 52.3745 26.2314 52.3745Z" fill="#3A2E27"/>
    <path d="M37.3082 52.3603C39.5831 52.3603 41.4272 50.5162 41.4272 48.2414C41.4272 45.9666 39.5831 44.1224 37.3082 44.1224C35.0334 44.1224 33.1893 45.9666 33.1893 48.2414C33.1893 50.5162 35.0334 52.3603 37.3082 52.3603Z" fill="#3A2E27"/>
    <path d="M26.1986 19.2451C28.4734 19.2451 30.3175 17.401 30.3175 15.1262C30.3175 12.8513 28.4734 11.0072 26.1986 11.0072C23.9237 11.0072 22.0796 12.8513 22.0796 15.1262C22.0796 17.401 23.9237 19.2451 26.1986 19.2451Z" fill="#4FA0CA"/>
    <path d="M48.3831 30.2872C50.6579 30.2872 52.5021 28.4431 52.5021 26.1683C52.5021 23.8934 50.6579 22.0493 48.3831 22.0493C46.1083 22.0493 44.2642 23.8934 44.2642 26.1683C44.2642 28.4431 46.1083 30.2872 48.3831 30.2872Z" fill="#4FA0CA"/>
    <path d="M15.1212 41.3206C17.396 41.3206 19.2401 39.4764 19.2401 37.2016C19.2401 34.9268 17.396 33.0826 15.1212 33.0826C12.8463 33.0826 11.0022 34.9268 11.0022 37.2016C11.0022 39.4764 12.8463 41.3206 15.1212 41.3206Z" fill="#4FA0CA"/>
    <path d="M73.4943 51.7654H68.3593V1.78381H73.4943V51.7654ZM105.922 9.79951C104.815 8.31507 103.404 7.12718 101.693 6.13758C99.9815 5.24623 97.8667 4.75139 95.448 4.75139C94.2406 4.75139 92.9296 4.94966 91.622 5.34618C90.3683 5.72409 89.1799 6.29156 88.0979 7.02887C87.0906 7.82022 86.1832 8.80987 85.5794 9.99776C84.9175 11.2829 84.5721 12.7074 84.5721 14.1528C84.5721 15.739 84.8739 17.1234 85.4794 18.113C86.0831 19.1027 86.8887 19.9923 87.9979 20.7854C89.0036 21.4785 90.2127 22.0715 91.522 22.5681C92.8773 23.089 94.2545 23.5509 95.6499 23.9525C97.4628 24.5473 99.1757 25.1421 100.987 25.8335C102.8 26.5266 104.411 27.318 105.822 28.4076C107.231 29.4955 108.44 30.7816 109.346 32.4644C110.252 34.0488 110.755 36.1263 110.755 38.6021C110.755 41.0762 110.252 43.2537 109.346 45.0348C108.339 46.8158 107.131 48.3002 105.62 49.4881C104.045 50.716 102.225 51.5935 100.283 52.0622C98.3222 52.6484 96.287 52.9486 94.2404 52.9535C92.7293 52.9535 91.2183 52.7553 89.6071 52.4587C88.0869 52.1475 86.6021 51.683 85.1756 51.0725C83.7591 50.4741 82.4367 49.6739 81.2496 48.6968C80.0403 47.7071 79.033 46.7175 78.1273 45.4313L82.5588 42.1642C83.6662 43.9469 85.1756 45.4313 87.1904 46.6192C89.2051 47.8054 91.52 48.4002 94.2404 48.4002C95.5496 48.4002 96.8589 48.2019 98.1682 47.8054C99.4871 47.4209 100.718 46.7825 101.792 45.9262C102.896 45.1253 103.794 44.0734 104.411 42.8573C105.116 41.6694 105.418 40.2832 105.418 38.7005C105.418 36.9195 105.116 35.5334 104.411 34.3455C103.707 33.1576 102.8 32.2662 101.692 31.4749C100.585 30.6818 99.1738 30.0887 97.7645 29.4956C96.2109 28.997 94.6668 28.4693 93.1329 27.9129C91.452 27.423 89.8036 26.8275 88.1976 26.1302C86.5865 25.4371 85.0753 24.6475 83.7661 23.5579C82.4609 22.4694 81.3974 21.1206 80.6439 19.5977C79.8383 18.015 79.4364 16.134 79.4364 13.8565C79.4364 11.4824 79.9401 9.40316 80.9457 7.62216C81.9531 5.84117 83.1623 4.45502 84.7735 3.26713C86.3846 2.17923 88.0975 1.28789 90.0107 0.793086C91.9237 0.298286 93.8367 0 95.6515 0C99.0739 0 102.096 0.594791 104.513 1.78268C106.928 2.97058 108.843 4.45502 110.05 6.03773L105.922 9.79951ZM116.195 1.7824H130.597C133.213 1.7824 135.53 2.07895 137.645 2.57549C139.604 3.03107 141.453 3.87149 143.084 5.04785C144.591 6.11386 145.804 7.54464 146.608 9.20636C147.413 10.8874 147.815 12.8683 147.815 15.144C147.815 17.4196 147.413 19.399 146.608 21.0816C145.804 22.7433 144.591 24.1741 143.084 25.2401C141.453 26.417 139.604 27.258 137.645 27.7141C135.53 28.3072 133.113 28.6037 130.597 28.6037H121.532V51.8633H116.397V1.78329L116.195 1.7824ZM121.33 24.2488H130.093C134.121 24.2488 137.243 23.4574 139.356 21.8747C141.472 20.2903 142.478 18.0128 142.478 15.0455C142.478 11.9766 141.371 9.70093 139.256 8.21489C137.041 6.73218 134.02 6.03735 130.092 6.03735H121.33L121.33 24.2488ZM202.499 26.8229C202.499 30.6831 201.796 34.1467 200.486 37.3137C199.177 40.4809 197.264 43.2532 194.949 45.6271C192.541 48.0133 189.658 49.868 186.488 51.0716C183.12 52.3927 179.532 53.0643 175.914 53.0508C172.296 53.0643 168.708 52.3927 165.339 51.0716C162.117 49.7854 159.297 47.9044 156.88 45.6271C154.464 43.2531 152.651 40.4808 151.343 37.3137C150.032 34.1466 149.326 30.5848 149.326 26.8229C149.326 22.9626 150.034 19.4991 151.341 16.332C152.652 13.1649 154.564 10.3925 156.88 8.01861C159.288 5.63266 162.17 3.77794 165.34 2.57418C168.562 1.28803 172.088 0.594931 175.914 0.594931C179.742 0.594931 183.165 1.28803 186.488 2.57418C189.71 3.86206 192.531 5.74132 194.947 8.01861C197.364 10.3927 199.177 13.1649 200.487 16.332C201.798 19.4991 202.501 22.9629 202.501 26.8229H202.499ZM197.062 26.8229C197.062 23.9523 196.559 21.1815 195.653 18.5095C194.646 15.8371 193.337 13.5615 191.524 11.5804C189.712 9.60117 187.496 8.01847 184.877 6.83072C182.259 5.64109 179.34 5.04803 176.116 5.04803C172.894 5.04803 169.871 5.64282 167.353 6.83072C164.736 8.01861 162.52 9.60131 160.709 11.5804C158.881 13.5897 157.476 15.9462 156.579 18.5095C155.572 21.1818 155.17 23.9525 155.17 26.8229C155.17 29.6932 155.673 32.4642 156.579 35.1363C157.586 37.8086 158.896 40.0842 160.709 42.0653C162.52 44.0446 164.736 45.6273 167.355 46.815C169.974 48.0047 172.892 48.5977 176.116 48.5977C179.338 48.5977 182.361 48.0029 184.879 46.815C187.496 45.6271 189.711 44.0444 191.524 42.0653C193.372 40.0713 194.779 37.7103 195.653 35.1363C196.559 32.4639 197.062 29.6932 197.062 26.8229ZM212.774 51.7654H207.637V1.78381H222.541C225.059 1.78381 227.376 1.98208 229.492 2.4769C231.605 2.9717 233.418 3.6648 235.03 4.7527C236.541 5.84215 237.782 7.26439 238.656 8.90949C239.561 10.5922 239.965 12.6715 239.965 15.1457C239.965 17.0249 239.663 18.6111 238.957 20.194C238.263 21.6469 237.346 22.9825 236.239 24.1525C235.131 25.2421 233.72 26.1317 232.109 26.8248C230.498 27.5179 228.785 27.9145 226.974 28.111L241.878 51.9654H235.534L221.436 28.6056H212.774L212.774 51.7654ZM212.774 24.0524H221.737C225.865 24.0524 229.089 23.3593 231.404 21.8748C233.62 20.3904 234.828 18.2129 234.828 15.2425C234.828 13.5598 234.526 12.1736 233.922 11.0874C233.295 9.95891 232.395 9.00568 231.304 8.31512C230.196 7.62202 228.887 7.12722 227.276 6.73068C225.549 6.40453 223.796 6.23888 222.038 6.23588H212.874V24.0524L212.774 24.0524Z" fill="#3A2E27"/>
</svg>
