<svg width="198" height="51" viewBox="0 0 198 51" fill="none" xmlns="http://www.w3.org/2000/svg">
<g clip-path="url(#clip0_6_9)">
<path d="M11.6915 0L1.88073 21.9483L0 24.3913V25.0118H10.1792V24.3913L8.66687 22.1228L9.42303 19.99H16.7521L27.6567 39.9117C34.7872 44.0592 41.095 41.5289 41.095 41.5289C31.7829 37.8422 21.9783 15.3305 14.7356 0H11.6915ZM39.7312 8.56023C37.9969 8.56023 36.5318 9.2339 35.3194 10.6146L35.2015 9.01506H28.1964V9.5539L29.8299 11.9953V22.0315L28.1964 24.4729V25.0118H37.104V24.4729L35.4713 22.0315V16.4241C35.4545 15.6158 35.6897 14.9762 36.1612 14.5215C36.6159 14.0837 37.1884 13.8478 37.8788 13.8478C38.5691 13.8478 39.1418 14.0837 39.6133 14.5215C40.0679 14.9762 40.3032 15.6158 40.3032 16.4241V22.0315L38.6705 24.4729V25.0118H47.5781V24.4729L45.9446 22.0315V14.3196C45.9446 12.4842 45.3384 11.0691 44.126 10.0588C42.9137 9.06537 41.4487 8.56023 39.7312 8.56023ZM58.3713 8.56023C55.7277 8.56023 53.5893 9.36898 51.956 10.9855C50.3058 12.6188 49.4976 14.6226 49.4976 16.9968C49.4976 19.3879 50.322 21.3911 51.9721 23.0244C53.6223 24.6745 55.7613 25.4827 58.3713 25.4827C60.9644 25.4827 63.1025 24.6745 64.7527 23.0244C66.4028 21.3911 67.228 19.3709 67.228 16.9799C67.228 14.6057 66.4029 12.6019 64.7696 10.9855C63.1195 9.36898 60.9981 8.56023 58.3713 8.56023ZM81.2373 8.56023C79.503 8.56023 78.0379 9.2339 76.8255 10.6146L76.7084 9.01506H69.7033V9.5539L71.3368 11.9953V22.0315L69.7033 24.4729V25.0118H78.6109V24.4729L76.9774 22.0315V16.4241C76.9606 15.6158 77.1967 14.9762 77.6681 14.5215C78.1228 14.0837 78.6953 13.8478 79.3857 13.8478C80.076 13.8478 80.6479 14.0837 81.1194 14.5215C81.574 14.9762 81.8101 15.6158 81.8101 16.4241V22.0315L80.1766 24.4729V25.0118H89.0842V24.4729L87.4507 22.0315V14.3196C87.4507 12.4842 86.8445 11.0691 85.6322 10.0588C84.4198 9.06537 82.9548 8.56023 81.2373 8.56023ZM124.226 8.56023C122.34 8.56023 120.791 9.2339 119.578 10.6146L119.46 9.01506H112.456V9.5539L114.089 11.9953V22.0315L112.456 24.4729V25.0118H121.364V24.4729L119.73 22.0315V16.4241C119.73 15.6158 119.965 14.9762 120.437 14.5215C120.908 14.0837 121.481 13.8478 122.154 13.8478C122.828 13.8478 123.401 14.0837 123.872 14.5215C124.327 14.9762 124.563 15.6158 124.563 16.4241V22.0315L122.929 24.4729V25.0118H131.837V24.4729L130.203 22.0315V16.727C130.203 15.9019 130.44 15.2114 130.911 14.6726C131.383 14.1338 131.955 13.8646 132.629 13.8478C133.302 13.8478 133.874 14.0837 134.345 14.5215C134.8 14.9762 135.036 15.6158 135.036 16.4241V22.0315L133.402 24.4729V25.0118H142.31V24.4729L140.677 22.0315V14.3196C140.677 12.4673 140.121 11.0361 139.01 10.0427C137.882 9.06605 136.551 8.56023 135.002 8.56023C132.746 8.56023 130.928 9.47 129.58 11.3054C129.092 10.3961 128.352 9.72243 127.375 9.25096C126.382 8.79632 125.337 8.56023 124.226 8.56023ZM153.087 8.56023C150.444 8.56023 148.304 9.36898 146.671 10.9855C145.021 12.6188 144.213 14.6226 144.213 16.9968C144.213 19.3879 145.038 21.3911 146.688 23.0244C148.338 24.6745 150.477 25.4827 153.087 25.4827C155.68 25.4827 157.818 24.6745 159.469 23.0244C161.119 21.3911 161.944 19.3709 161.944 16.9799C161.944 14.6057 161.119 12.6019 159.486 10.9855C157.835 9.36898 155.714 8.56023 153.087 8.56023ZM191.916 8.56023C190.03 8.56023 188.464 9.01546 187.218 9.92473C185.972 10.834 185.366 12.08 185.366 13.6628C185.366 14.7741 185.601 15.6492 186.107 16.2722C186.612 16.8952 187.336 17.4004 188.279 17.7708C188.582 17.9055 188.953 18.0403 189.374 18.2087C189.778 18.377 190.114 18.5124 190.366 18.6134C190.619 18.7144 190.889 18.8155 191.192 18.9333C191.478 19.068 191.714 19.1684 191.882 19.2694C192.05 19.3704 192.236 19.4885 192.472 19.6232C192.708 19.7579 192.826 19.9767 192.826 20.2461C192.826 20.9365 192.185 21.2737 190.939 21.2737C189.289 21.2737 187.639 20.6002 186.023 19.2363H185.484V23.951C186.544 24.5235 187.487 24.9109 188.329 25.1467C189.171 25.3824 190.232 25.4827 191.512 25.4827C193.331 25.4827 194.829 24.9947 196.041 24.0181C197.253 23.0414 197.86 21.829 197.86 20.3641C197.86 18.4445 196.816 17.0639 194.728 16.2051C194.56 16.1378 194.038 15.9357 193.146 15.5653C192.253 15.1949 191.58 14.8919 191.108 14.6225C190.637 14.3531 190.4 14.0838 190.4 13.7807C190.4 13.4776 190.569 13.2419 190.939 13.0399C191.31 12.8547 191.748 12.7531 192.287 12.7531C193.769 12.7531 195.216 13.3256 196.648 14.4706H197.187V9.77284C195.553 8.9646 193.802 8.56023 191.916 8.56023ZM89.1513 9.01506V9.5539L91.0877 11.9953L97.4021 23.7321L94.6407 29.1198L91.6944 31.9999V32.3868H102.505V31.9999L100.534 29.4066L109.274 11.9953L111.226 9.5539V9.01506H101.696V9.5539L103.043 11.5914L100.383 17.5187L97.621 11.9113L99.1875 9.5539V9.01506H89.1513ZM163.863 9.01506V9.5539L165.497 11.9953V19.7073C165.497 21.5595 166.103 22.9907 167.315 23.9841C168.528 24.9944 169.908 25.4827 171.474 25.4827C173.428 25.4827 175.027 24.7418 176.273 23.2264L176.627 25.0118H183.21V24.4729L181.578 22.0315L181.611 9.01506H174.337V9.5539L175.97 11.9953V17.5858C175.97 18.4277 175.734 19.1183 175.262 19.6572C174.791 20.196 174.219 20.4651 173.546 20.4651C172.872 20.4651 172.3 20.2467 171.828 19.7921C171.357 19.3543 171.137 18.7138 171.137 17.8887V9.01506H163.863ZM13.2039 9.4812L15.2397 15.4724H11.0517L13.2039 9.4812ZM58.3713 13.8478C59.2132 13.8478 59.9367 14.151 60.5428 14.7235C61.1322 15.3128 61.4355 16.0707 61.4355 16.9968C61.4355 17.9398 61.1322 18.697 60.5428 19.2864C59.9367 19.8925 59.2132 20.1791 58.3713 20.1791C57.5125 20.1791 56.7881 19.8925 56.1819 19.2864C55.5758 18.697 55.2901 17.9398 55.2901 16.9968C55.2732 16.0707 55.5758 15.3128 56.1819 14.7235C56.7881 14.151 57.5125 13.8478 58.3713 13.8478ZM153.087 13.8478C153.929 13.8478 154.653 14.151 155.259 14.7235C155.848 15.3128 156.151 16.0707 156.151 16.9968C156.151 17.9398 155.848 18.697 155.259 19.2864C154.653 19.8925 153.929 20.1791 153.087 20.1791C152.228 20.1791 151.504 19.8925 150.898 19.2864C150.292 18.697 150.005 17.9398 150.005 16.9968C149.988 16.0707 150.292 15.3128 150.898 14.7235C151.504 14.151 152.228 13.8478 153.087 13.8478Z" fill="#E4D5C9"/>
<path d="M58.3277 35.2377V30.4683H58.0565L56.8365 31.5651C55.6534 30.838 54.3101 30.4683 52.8065 30.4683C50.391 30.4683 48.4192 31.257 46.891 32.8098C45.3506 34.375 44.5865 36.3098 44.5865 38.6144C44.5865 40.9313 45.3506 42.8662 46.891 44.419C48.4315 45.9841 50.4034 46.7606 52.8065 46.7606C54.3101 46.7606 55.6534 46.4032 56.8365 45.6637L58.0565 46.7606H58.3277V41.9912H58.0565C56.8488 43.8767 55.0988 44.8134 52.8065 44.8134C51.0442 44.8134 49.6023 44.2341 48.4685 43.0634C47.3347 41.8926 46.7678 40.4137 46.7678 38.6144C46.7678 36.8274 47.3347 35.3486 48.4685 34.1778C49.6023 33.007 51.0442 32.4155 52.8065 32.4155C55.0988 32.4155 56.8488 33.3644 58.0565 35.2377H58.3277ZM66.8558 36.507C68.0266 36.507 68.9879 36.9014 69.752 37.6901C70.5037 38.4789 70.8858 39.4771 70.8858 40.6848C70.8858 41.8926 70.5037 42.8908 69.752 43.6796C69.0002 44.4683 68.0389 44.8627 66.8558 44.8627C65.6727 44.8627 64.6992 44.4683 63.9474 43.6796C63.1833 42.8908 62.8136 41.8926 62.8136 40.6848C62.8136 39.4771 63.1833 38.4789 63.9474 37.6901C64.6992 36.9014 65.6727 36.507 66.8558 36.507ZM66.8558 34.5968C65.1798 34.5968 63.7502 35.2007 62.5548 36.3838C61.3594 37.5915 60.7678 39.0211 60.7678 40.6848C60.7678 42.3609 61.3594 43.7905 62.5548 44.9736C63.7502 46.169 65.1798 46.7606 66.8558 46.7606C68.5196 46.7606 69.9492 46.169 71.1446 44.9736C72.3277 43.7905 72.9316 42.3486 72.9316 40.6725C72.9316 38.9965 72.3277 37.5669 71.1446 36.3838C69.9492 35.2007 68.5196 34.5968 66.8558 34.5968ZM88.2625 46.4155V46.1444L86.6111 44.8134V39.3292C86.6111 37.801 86.1798 36.6303 85.3418 35.8169C84.4914 35.0035 83.4069 34.5968 82.1006 34.5968C81.3365 34.5968 80.634 34.7817 80.0055 35.1514C79.377 35.5211 78.8717 35.9648 78.4773 36.4824V36.4331L78.3048 34.5968L74.9404 35.1267V35.3732L76.5918 36.7289V44.8134L74.9404 46.1444V46.4155H80.215V46.1444L78.5636 44.8134V39.5264C78.5636 38.5158 78.8471 37.7517 79.4263 37.2588C79.9932 36.7658 80.7203 36.507 81.6076 36.507C82.4826 36.507 83.2097 36.7535 83.7766 37.2465C84.3435 37.7394 84.6393 38.5035 84.6393 39.5264V44.8134L82.9879 46.1444V46.4155H88.2625ZM97.4192 37.5792V35.5334C96.4087 34.9172 95.3118 34.5968 94.1287 34.5968C92.9456 34.5968 91.9721 34.8926 91.1956 35.4718C90.4069 36.051 90.0249 36.8644 90.0249 37.8996C90.0249 39.2676 90.8013 40.2658 92.3664 40.9067C92.502 40.9806 92.8717 41.1285 93.4633 41.3627C94.0548 41.5968 94.6094 41.8803 95.1393 42.213C95.6569 42.5581 95.928 42.9894 95.928 43.507C95.928 44.0246 95.7432 44.419 95.3858 44.6901C95.0161 44.9613 94.5231 45.0845 93.8823 45.0845C92.428 45.0845 91.208 44.5422 90.2344 43.4577H89.9633V45.5898C89.9879 45.6144 90.1358 45.6884 90.3823 45.8363C90.6287 45.9841 90.789 46.0581 90.8383 46.0827C90.8875 46.1074 91.0354 46.1813 91.2573 46.2922C91.4791 46.4155 91.6516 46.4771 91.7749 46.5017C91.8981 46.5264 92.0953 46.5757 92.3787 46.6496C92.6499 46.7236 93.0935 46.7606 93.6974 46.7606C95.0284 46.7606 96.0513 46.4401 96.7784 45.787C97.5055 45.1338 97.8752 44.3204 97.8752 43.3591C97.8752 41.9789 96.9509 40.8944 95.127 40.1056C94.9791 40.044 94.5971 39.8838 93.9809 39.6373C93.3647 39.3908 92.8717 39.1444 92.5143 38.8979C92.1569 38.6514 91.9844 38.294 91.9844 37.8257C91.9844 37.3574 92.1569 36.9877 92.5143 36.7042C92.8717 36.4208 93.414 36.2729 94.1411 36.2729C95.2995 36.2729 96.3101 36.7165 97.1481 37.5792H97.4192ZM112.775 46.4155V46.1444L111.111 44.8134L111.136 34.9419H107.463V35.213L109.115 36.544V42.3116C109.016 43.2113 108.708 43.8891 108.166 44.3451C107.623 44.8134 106.933 45.0352 106.12 45.0352C105.294 45.0352 104.592 44.7641 104.025 44.2218C103.458 43.6796 103.175 42.8908 103.175 41.831L103.15 34.9419H99.5759V35.213L101.227 36.544L101.203 42.0158C101.203 43.544 101.622 44.7025 102.472 45.5158C103.322 46.3292 104.395 46.7482 105.701 46.7606C106.44 46.7482 107.131 46.5634 107.784 46.1937C108.425 45.8363 108.905 45.4049 109.213 44.8996L109.373 46.4155H112.775ZM119.763 46.4155V46.1444L118.111 44.8134V29.3222L114.476 29.7781V30.0123L116.139 31.3926V44.8134L114.476 46.1444V46.4155H119.763ZM124.976 42.9771V36.544H128.993V34.9419H125V32.4155H124.606L120.896 36.2975V36.544H123.004V43.1127C123.004 44.2958 123.324 45.1954 123.99 45.8239C124.643 46.4525 125.469 46.7606 126.479 46.7606C127.477 46.7606 128.291 46.4771 128.919 45.9102V43.8891H128.673C128.192 44.6532 127.625 45.0352 126.96 45.0352C125.629 45.0352 124.976 44.3574 124.976 42.9771ZM138.951 42.4472C138.951 43.2482 138.594 43.9014 137.891 44.4067C137.176 44.9243 136.412 45.1831 135.574 45.1831C134.736 45.1831 134.095 45.0106 133.676 44.6408C133.245 44.2834 133.023 43.7905 133.023 43.1743C133.023 42.5581 133.257 42.0651 133.738 41.6831C134.206 41.3134 134.884 41.1162 135.747 41.1162C136.609 41.1162 137.361 41.2517 138.002 41.4982C138.199 41.5845 138.52 41.7324 138.951 41.9419V42.4472ZM142.599 46.4155V46.1444L140.947 44.8134H140.923V39.0704C140.923 37.7394 140.454 36.6549 139.518 35.8292C138.581 35.0158 137.361 34.5968 135.87 34.5968C134.366 34.5968 133.122 35.0405 132.111 35.9032V37.875L132.358 37.9982C133.146 37.0123 134.219 36.507 135.574 36.507C136.511 36.507 137.3 36.7289 137.965 37.1479C138.618 37.5792 138.951 38.257 138.951 39.169V40.4014C137.731 39.7852 136.535 39.4648 135.352 39.4648C134.169 39.4648 133.146 39.8098 132.284 40.5C131.421 41.2148 130.99 42.1021 130.99 43.162C130.99 44.2341 131.396 45.0968 132.21 45.7623C133.023 46.4278 133.984 46.7606 135.094 46.7606C136.868 46.7606 138.273 46.0704 139.321 44.6778L139.358 46.4155H142.599ZM157.449 46.4155V46.1444L155.798 44.8134V39.3292C155.798 37.801 155.366 36.6303 154.528 35.8169C153.678 35.0035 152.594 34.5968 151.287 34.5968C150.523 34.5968 149.821 34.7817 149.192 35.1514C148.564 35.5211 148.058 35.9648 147.664 36.4824V36.4331L147.491 34.5968L144.127 35.1267V35.3732L145.778 36.7289V44.8134L144.127 46.1444V46.4155H149.402V46.1444L147.75 44.8134V39.5264C147.75 38.5158 148.034 37.7517 148.613 37.2588C149.18 36.7658 149.907 36.507 150.794 36.507C151.669 36.507 152.396 36.7535 152.963 37.2465C153.53 37.7394 153.826 38.5035 153.826 39.5264V44.8134L152.175 46.1444V46.4155H157.449ZM162.366 42.9771V36.544H166.384V34.9419H162.391V32.4155H161.997L158.287 36.2975V36.544H160.395V43.1127C160.395 44.2958 160.715 45.1954 161.381 45.8239C162.034 46.4525 162.859 46.7606 163.87 46.7606C164.868 46.7606 165.682 46.4771 166.31 45.9102V43.8891H166.064C165.583 44.6532 165.016 45.0352 164.351 45.0352C163.02 45.0352 162.366 44.3574 162.366 42.9771ZM175.997 37.5792V35.5334C174.986 34.9172 173.889 34.5968 172.706 34.5968C171.523 34.5968 170.55 34.8926 169.773 35.4718C168.984 36.051 168.602 36.8644 168.602 37.8996C168.602 39.2676 169.379 40.2658 170.944 40.9067C171.08 40.9806 171.449 41.1285 172.041 41.3627C172.632 41.5968 173.187 41.8803 173.717 42.213C174.234 42.5581 174.506 42.9894 174.506 43.507C174.506 44.0246 174.321 44.419 173.963 44.6901C173.594 44.9613 173.101 45.0845 172.46 45.0845C171.006 45.0845 169.785 44.5422 168.812 43.4577H168.541V45.5898C168.565 45.6144 168.713 45.6884 168.96 45.8363C169.206 45.9841 169.366 46.0581 169.416 46.0827C169.465 46.1074 169.613 46.1813 169.835 46.2922C170.057 46.4155 170.229 46.4771 170.352 46.5017C170.476 46.5264 170.673 46.5757 170.956 46.6496C171.227 46.7236 171.671 46.7606 172.275 46.7606C173.606 46.7606 174.629 46.4401 175.356 45.787C176.083 45.1338 176.453 44.3204 176.453 43.3591C176.453 41.9789 175.528 40.8944 173.705 40.1056C173.557 40.044 173.175 39.8838 172.558 39.6373C171.942 39.3908 171.449 39.1444 171.092 38.8979C170.734 38.6514 170.562 38.294 170.562 37.8257C170.562 37.3574 170.734 36.9877 171.092 36.7042C171.449 36.4208 171.991 36.2729 172.719 36.2729C173.877 36.2729 174.888 36.7165 175.726 37.5792H175.997Z" fill="#E4D5C9"/>
</g>
<defs>
<clipPath id="clip0_6_9">
<rect width="197.86" height="51" fill="white"/>
</clipPath>
</defs>
</svg>
